<?xml version="1.0" standalone="no"?>
<!DOCTYPE svg PUBLIC "-//W3C//DTD SVG 20010904//EN"
 "http://www.w3.org/TR/2001/REC-SVG-20010904/DTD/svg10.dtd">
<svg version="1.0" xmlns="http://www.w3.org/2000/svg"
 width="2000.000000pt" height="2000.000000pt" viewBox="0 0 2000.000000 2000.000000"
 preserveAspectRatio="xMidYMid meet">
<metadata>
Created by potrace 1.11, written by Peter Selinger 2001-2013
</metadata>
<g transform="translate(0.000000,2000.000000) scale(0.100000,-0.100000)"
fill="#000000" stroke="none">
<path d="M0 10000 l0 -10000 10000 0 10000 0 0 10000 0 10000 -10000 0 -10000
0 0 -10000z m18230 1246 l0 -4383 -44 -6 c-40 -6 -388 -48 -811 -98 -93 -11
-393 -47 -665 -79 -272 -33 -551 -66 -620 -75 -69 -8 -255 -31 -415 -50 -159
-19 -348 -42 -420 -50 -116 -14 -323 -39 -995 -120 -113 -14 -338 -40 -500
-60 -341 -40 -1003 -119 -1710 -205 -272 -33 -607 -73 -745 -89 -353 -42
-1208 -144 -1545 -185 -157 -20 -364 -44 -460 -56 -96 -11 -398 -48 -670 -81
-272 -33 -594 -71 -715 -85 -213 -24 -827 -98 -1069 -129 -66 -8 -122 -19
-125 -24 -6 -8 -105 -21 -866 -111 -225 -27 -579 -69 -785 -94 -504 -62 -1414
-171 -1630 -196 -96 -11 -416 -49 -710 -85 -294 -35 -606 -73 -692 -83 l-158
-18 0 4385 0 4386 398 48 c218 26 471 56 562 67 171 20 270 31 825 99 182 22
393 47 470 56 77 9 320 38 540 65 220 27 463 56 540 65 77 9 376 45 665 80
289 35 595 71 680 81 85 10 160 23 166 29 6 6 155 28 330 48 175 21 504 61
729 88 226 27 561 67 745 89 184 22 558 66 830 99 1065 129 1512 182 1720 206
74 9 297 36 495 60 198 25 479 58 625 75 146 17 411 49 590 71 179 22 496 60
705 84 209 25 488 59 620 75 132 16 375 45 540 65 165 19 464 55 665 79 201
25 428 52 505 61 77 9 361 42 630 75 270 33 681 82 915 111 234 28 508 61 610
74 102 13 200 23 218 24 l32 1 0 -4384z"/>
<path d="M15695 14099 c-60 -5 -180 -15 -265 -24 -86 -8 -186 -15 -223 -15
-37 0 -120 -11 -184 -25 -65 -14 -136 -25 -158 -25 -110 -1 -388 -41 -510 -75
-71 -19 -181 -42 -245 -50 -63 -8 -140 -22 -170 -30 -30 -9 -89 -19 -130 -23
l-75 -7 -50 -100 c-46 -92 -50 -105 -48 -165 6 -215 0 -820 -8 -900 -11 -99
-23 -259 -38 -520 -7 -100 -6 -245 0 -410 6 -140 12 -559 14 -930 3 -655 7
-857 22 -1275 4 -110 5 -306 3 -435 -6 -296 -6 -453 1 -1139 l5 -554 32 -28
c27 -24 42 -29 90 -31 80 -2 77 -3 177 16 88 16 262 30 535 41 178 7 298 43
357 107 31 33 97 171 123 255 20 65 21 79 10 140 -7 37 -16 226 -20 418 -11
436 -24 650 -51 826 l-20 138 21 79 c33 123 38 128 206 214 128 65 161 77 232
87 111 16 133 10 187 -53 52 -61 69 -103 90 -226 10 -57 39 -150 79 -252 35
-90 76 -201 91 -248 15 -47 42 -125 60 -175 131 -359 154 -446 201 -750 28
-181 68 -282 127 -319 18 -11 67 -12 252 -6 192 6 249 11 345 33 63 14 164 30
223 37 199 21 276 59 340 170 l26 46 -34 143 c-19 79 -37 165 -40 190 -37 267
-65 392 -119 529 -24 62 -50 145 -56 185 -12 68 -65 243 -164 533 -25 73 -67
176 -94 230 -27 55 -65 142 -85 194 -20 52 -58 129 -84 170 -78 125 -72 208
23 311 92 100 249 322 285 403 11 27 46 90 75 140 69 115 90 173 110 294 15
100 93 482 99 492 2 3 11 60 21 126 22 162 24 704 1 779 -11 38 -13 85 -9 195
4 142 4 150 -42 380 -52 260 -55 268 -160 397 -96 119 -170 164 -361 223 -55
16 -134 48 -175 70 -140 76 -218 110 -307 134 -107 29 -360 77 -399 75 -16 -1
-78 -6 -139 -10z m428 -512 c20 -18 37 -37 37 -42 -1 -11 -70 -89 -75 -83 -15
17 -105 138 -105 142 0 3 17 7 38 9 20 2 44 4 53 5 8 1 32 -13 52 -31z m-234
-21 c2 -45 2 -45 -40 -56 -22 -6 -42 -10 -44 -8 -8 10 -45 89 -45 98 0 6 26
10 63 10 l63 0 3 -44z m611 -17 c7 -17 23 -46 36 -64 12 -18 25 -56 29 -84 l7
-51 -66 0 -66 0 0 43 c0 23 -7 69 -15 100 -19 74 -19 75 8 80 47 9 55 6 67
-24z m-830 -9 c0 -11 -6 -20 -12 -20 -7 0 -24 -3 -38 -6 l-25 -6 28 26 c34 31
47 33 47 6z m-1560 -91 l0 -51 -52 7 c-58 8 -78 19 -78 44 0 11 17 22 53 32
78 25 77 25 77 -32z m2163 -89 c5 -4 -8 -13 -28 -20 -38 -13 -54 -5 -55 27 0
13 68 7 83 -7z m177 -197 c-39 -62 -88 -118 -96 -111 -3 4 -3 24 1 46 6 35 14
44 63 76 31 19 58 35 59 36 2 0 -11 -21 -27 -47z m-634 -25 c22 -8 74 -38 115
-66 74 -51 75 -52 107 -139 27 -74 34 -116 47 -258 9 -93 21 -209 29 -256 14
-93 6 -499 -14 -729 -6 -63 -15 -180 -20 -260 -13 -182 -25 -227 -95 -350 -61
-108 -83 -129 -255 -242 -143 -93 -269 -150 -465 -208 -71 -21 -183 -57 -248
-80 -65 -23 -122 -40 -128 -38 -6 2 -12 56 -14 123 -3 66 -10 192 -16 280 -6
88 -9 187 -7 220 3 33 -1 125 -9 204 -12 111 -13 181 -6 308 6 104 6 184 0
221 -12 73 -14 294 -5 707 5 240 4 346 -4 388 -9 41 -9 63 -2 75 6 9 66 36
135 59 116 40 131 43 239 44 63 0 140 5 170 9 90 14 398 5 446 -12z m-1681
-159 c9 -27 -24 -62 -54 -57 -21 3 -21 3 4 41 29 42 41 46 50 16z m2523 -208
c-27 -25 -114 -59 -123 -49 -1 2 7 47 19 101 l21 97 58 -59 58 -60 -33 -30z
m171 -217 c2 -1 -15 -29 -38 -61 -23 -33 -41 -64 -41 -70 0 -17 -71 -76 -80
-66 -5 4 -17 32 -28 61 l-20 52 39 20 c21 11 49 34 61 51 21 27 26 29 63 23
22 -3 42 -8 44 -10z m95 -206 c10 -40 21 -125 23 -188 l5 -115 -36 -34 -36
-35 0 30 c0 21 -10 37 -35 59 l-36 30 29 85 c16 47 35 120 42 163 7 42 16 77
19 77 4 0 15 -33 25 -72z m-186 -235 c17 -13 32 -30 32 -37 0 -7 -18 -23 -41
-35 l-40 -23 -23 21 c-30 28 -36 27 -75 -13 l-34 -35 -33 22 c-19 12 -34 26
-34 31 0 5 20 31 45 57 25 26 45 57 45 67 0 19 3 19 63 -5 34 -14 77 -36 95
-50z m-20 -285 c23 -6 45 -15 48 -20 7 -10 -44 -88 -57 -88 -5 0 -9 7 -9 16 0
10 -6 14 -14 11 -12 -5 -96 80 -96 97 0 8 70 -1 128 -16z m-111 -217 c30 -8
47 -20 61 -45 24 -40 21 -43 -65 -55 l-53 -8 0 64 c0 35 3 62 8 60 4 -3 26
-10 49 -16z m-2411 -488 c-6 -15 -73 -15 -68 0 1 4 2 29 2 57 0 41 5 55 33 86
l32 37 3 -83 c2 -46 0 -90 -2 -97z m84 -311 c0 -21 -10 -37 -41 -61 -44 -36
-65 -36 -109 -2 l-25 20 75 35 c41 20 80 36 87 36 8 0 13 -12 13 -28z m2080
-29 c0 -5 -18 -28 -40 -53 l-39 -45 -21 25 c-11 14 -20 28 -20 31 0 6 89 47
108 48 6 1 12 -2 12 -6z m-2159 -300 c1 -5 3 -35 4 -68 1 -33 5 -74 9 -91 6
-25 1 -37 -25 -70 -17 -21 -37 -48 -45 -58 -7 -11 -16 -18 -18 -15 -3 3 -8 34
-12 71 -6 60 -4 71 23 129 17 35 33 74 37 87 7 21 24 31 27 15z m363 -54 c10
-36 12 -59 5 -76 -5 -13 -9 -26 -9 -28 0 -1 23 -8 50 -15 28 -7 53 -16 56 -22
3 -5 3 -34 -1 -64 -5 -46 -11 -57 -32 -65 -22 -8 -33 -2 -102 62 l-79 71 14
44 c10 34 72 144 81 144 1 0 8 -23 17 -51z m1126 -89 c12 -8 3 -21 -47 -69
-48 -45 -73 -61 -107 -69 -52 -11 -56 -9 -56 29 0 24 10 33 83 73 85 47 102
52 127 36z m-616 -191 c10 -45 15 -84 11 -87 -3 -3 -35 -11 -72 -17 l-66 -11
-30 -68 c-22 -50 -27 -70 -18 -75 8 -5 3 -11 -14 -19 -14 -7 -30 -12 -34 -12
-5 0 -28 38 -51 85 -23 47 -49 89 -58 94 -14 8 -13 15 12 63 39 72 39 72 74
44 16 -14 38 -26 48 -26 11 0 53 25 94 55 41 30 78 54 81 54 3 1 13 -35 23
-80z m281 46 c0 -27 -3 -30 -37 -33 -31 -3 -42 2 -63 25 -13 15 -25 32 -25 36
0 4 28 7 63 5 62 -3 62 -3 62 -33z m-902 -61 c31 -3 57 -8 57 -11 0 -2 -5 -24
-11 -49 -11 -43 -12 -44 -51 -44 -49 0 -111 44 -127 91 l-11 31 43 -5 c23 -4
68 -9 100 -13z m-168 -144 c16 -17 50 -37 75 -44 74 -22 64 -55 -32 -106 -21
-11 -42 -20 -48 -20 -6 0 -22 26 -36 58 -23 51 -24 61 -13 100 6 23 15 42 18
42 4 0 20 -14 36 -30z m932 -60 l-13 -45 -54 -2 -55 -3 65 60 c36 33 66 54 68
47 1 -7 -4 -32 -11 -57z m-561 -116 c-4 -18 -17 -41 -30 -51 -12 -10 -35 -37
-49 -60 -31 -49 -26 -56 55 -73 l58 -11 20 -66 c11 -36 20 -71 20 -78 0 -13
-51 -25 -109 -25 -53 0 -100 35 -126 94 -13 29 -29 57 -37 64 -8 6 -23 29 -33
51 -17 39 -17 39 9 77 14 21 58 73 97 116 l71 78 30 -41 c24 -34 29 -48 24
-75z m-490 64 c15 -30 15 -36 -2 -105 -13 -51 -23 -73 -34 -73 -8 0 -25 -3
-37 -6 -22 -6 -23 -4 -23 61 0 59 4 72 32 111 17 24 35 44 39 44 5 0 16 -14
25 -32z m165 -275 c3 -64 9 -142 14 -165 5 -33 8 -33 -83 -8 -39 11 -88 20
-108 20 -25 0 -35 4 -31 13 3 6 15 38 28 70 l24 58 55 -6 c30 -4 59 -8 65 -8
5 -1 11 8 13 21 4 26 22 30 23 5z m-7 -339 l39 -44 -21 -23 c-17 -18 -19 -30
-15 -71 l6 -49 -59 7 c-60 7 -74 16 -74 52 0 23 -51 74 -100 99 -17 9 -30 24
-30 35 0 15 10 20 48 25 26 3 54 8 62 9 8 2 35 4 60 4 41 0 49 -4 84 -44z
m2017 -200 c17 -15 17 -19 3 -45 -21 -42 -34 -36 -34 16 0 49 4 53 31 29z
m239 -10 c0 -3 -5 -14 -10 -25 -10 -17 -7 -19 35 -19 l45 0 25 -56 c14 -31 25
-58 25 -60 0 -4 -93 -45 -95 -42 -1 2 -26 44 -54 93 l-51 90 27 12 c30 13 53
16 53 7z m-2263 -269 c18 -24 31 -50 28 -57 -2 -7 -9 -32 -15 -54 -9 -36 -15
-43 -56 -59 -25 -9 -47 -15 -50 -12 -6 5 48 227 56 227 3 -1 20 -21 37 -45z
m2171 -117 c23 -16 42 -37 42 -46 -1 -22 -79 -77 -85 -60 -5 15 -25 127 -25
140 0 10 7 6 68 -34z m251 -14 c3 -3 -9 -34 -27 -69 -21 -44 -38 -65 -49 -65
-26 1 -56 47 -58 89 -3 61 1 64 69 56 33 -3 63 -9 65 -11z m67 -264 c-26 -39
-43 -46 -80 -31 -17 7 -17 9 7 36 26 30 89 59 95 43 2 -5 -8 -27 -22 -48z
m-2667 -27 c-1 -10 -4 -29 -8 -43 l-7 -24 -22 31 c-27 37 -27 40 -4 46 33 9
42 7 41 -10z"/>
<path d="M12639 13716 c-13 -13 -235 -49 -375 -61 -88 -8 -191 -21 -228 -29
-37 -9 -99 -16 -138 -16 -40 0 -99 -7 -132 -15 -106 -25 -324 -46 -561 -55
-190 -6 -260 -13 -405 -39 -96 -17 -242 -43 -325 -57 -253 -43 -458 -96 -580
-151 -149 -66 -139 -29 -136 -538 1 -220 4 -440 6 -490 20 -407 37 -661 52
-780 16 -119 18 -211 18 -605 -1 -333 -4 -484 -14 -530 -9 -47 -9 -73 -2 -93
6 -15 15 -56 21 -91 9 -57 7 -77 -17 -173 -30 -122 -32 -173 -19 -463 7 -171
6 -207 -10 -290 -15 -79 -19 -148 -19 -405 -1 -295 -5 -483 -22 -1035 -17
-520 -5 -720 47 -826 51 -104 58 -108 217 -124 150 -15 267 -15 377 0 79 11
523 104 601 127 93 27 89 15 87 244 -1 110 -7 264 -14 342 -15 181 -15 191 0
319 11 100 10 121 -18 325 -32 246 -46 382 -61 628 -22 338 -22 395 -2 460
l19 60 159 22 c88 12 223 31 300 42 77 11 167 21 200 21 33 0 92 9 130 20 43
12 100 20 147 20 114 0 223 17 314 50 75 26 90 28 171 23 102 -7 159 7 173 40
5 12 23 69 39 127 27 94 30 121 32 266 2 159 2 161 -26 212 -15 29 -56 81 -90
117 l-63 65 -144 0 c-109 0 -169 -5 -244 -21 -75 -16 -121 -20 -189 -16 -127
7 -255 -7 -360 -38 -120 -35 -252 -52 -413 -54 l-132 -2 -45 31 c-25 17 -47
41 -49 53 -3 12 -7 121 -10 242 -5 183 -2 248 14 380 18 143 19 181 10 355
-10 193 -4 351 20 528 5 40 14 165 19 278 6 112 12 208 15 213 3 5 7 39 8 76
1 59 5 69 32 96 16 16 53 37 80 48 64 23 264 59 376 67 47 3 135 16 195 29
228 49 491 79 710 80 71 0 157 8 210 18 121 24 365 104 392 129 12 11 32 43
44 71 22 50 23 63 24 332 l2 280 -29 72 c-27 66 -33 73 -66 83 -35 9 -314 15
-323 6z m-407 -303 c23 -24 25 -31 14 -45 -11 -16 -18 -16 -54 -5 l-41 12 20
33 c12 17 24 32 28 32 4 0 19 -12 33 -27z m-436 -419 c-2 -38 -14 -50 -60 -56
-20 -2 -32 3 -40 16 -8 13 -8 20 0 23 6 2 26 15 44 28 47 35 59 32 56 -11z
m254 -89 c7 -30 11 -58 8 -61 -6 -6 -70 25 -102 49 -19 14 -18 16 20 40 21 14
44 26 50 26 6 1 17 -24 24 -54z m-1699 -391 c44 -7 46 -11 22 -53 -26 -45 -63
-40 -77 9 -4 14 -10 34 -13 44 -4 15 -1 18 12 12 9 -3 34 -9 56 -12z m83 -176
c7 -41 5 -44 -25 -28 -22 12 -25 41 -7 70 15 23 22 13 32 -42z m-294 -950 c6
-24 13 -51 16 -60 3 -9 -20 -56 -52 -109 -68 -110 -70 -108 -70 76 1 118 1
119 26 126 58 16 69 12 80 -33z m267 -749 c15 -20 54 -69 87 -108 32 -39 56
-74 54 -77 -5 -4 -45 3 -166 31 -22 5 -23 9 -21 101 1 52 5 94 10 92 4 -2 21
-19 36 -39z m193 -238 c13 -26 13 -141 -1 -141 -11 0 -184 47 -209 57 -9 3 22
24 85 54 55 26 103 48 107 48 4 1 12 -8 18 -18z m30 -243 c11 -21 20 -41 20
-46 0 -4 -19 -13 -42 -19 -32 -9 -44 -8 -54 2 -11 11 -9 23 12 71 28 62 27 63
64 -8z m-246 27 c37 -7 38 -8 33 -44 -4 -20 -9 -71 -13 -114 -4 -43 -11 -80
-15 -83 -5 -2 -26 4 -47 15 -38 19 -39 21 -45 88 -12 117 -9 151 11 155 9 3
22 1 27 -3 6 -4 27 -10 49 -14z m1906 7 c0 -4 -15 -23 -34 -41 -31 -30 -36
-32 -85 -25 -49 6 -52 8 -49 33 3 25 6 26 78 32 41 3 78 6 83 7 4 1 7 -2 7 -6z
m-1664 -334 c-5 -55 -12 -70 -62 -135 -31 -41 -58 -72 -61 -70 -2 2 -19 26
-38 53 l-35 49 25 8 c23 8 25 14 26 65 1 32 1 60 0 64 -1 10 56 22 128 27 23
1 24 0 17 -61z m253 -3 l32 -45 -55 0 -56 0 0 45 c0 40 2 45 23 45 16 0 34
-14 56 -45z m-549 -263 l82 -234 -25 -26 c-37 -39 -97 -144 -97 -168 0 -19
-65 -82 -75 -72 -4 4 -35 178 -35 200 0 9 32 40 70 69 89 69 90 81 13 198 -74
113 -81 146 -48 219 14 30 27 53 29 51 2 -2 41 -109 86 -237z m513 88 c4 -4
-20 -35 -55 -68 -64 -62 -83 -70 -136 -56 -28 8 -26 22 20 131 l30 73 66 -37
c37 -20 71 -39 75 -43z m-260 -150 c5 -4 -12 -20 -36 -36 -25 -15 -53 -41 -62
-57 -17 -29 -17 -29 -37 -9 -18 18 -19 24 -8 58 6 22 13 44 15 50 3 12 114 7
128 -6z m-55 -662 c81 -68 97 -86 89 -99 -5 -9 -52 -47 -103 -85 l-94 -69 0
-51 c0 -28 -3 -71 -6 -95 -5 -39 -11 -47 -46 -66 -46 -26 -41 -33 -63 105
l-17 103 39 47 c56 68 56 65 27 136 l-27 65 39 51 c21 28 44 48 51 46 7 -3 57
-42 111 -88z m-394 -1198 c25 -9 25 -9 10 -55 -9 -25 -19 -45 -23 -45 -5 0
-28 28 -51 62 l-43 61 41 -6 c22 -4 52 -11 66 -17z m556 -286 c-6 -32 -10 -82
-10 -110 0 -28 -3 -53 -6 -57 -5 -5 -76 25 -92 38 -1 1 23 45 54 99 32 53 59
95 60 93 2 -2 -1 -30 -6 -63z"/>
<path d="M6195 12885 c-55 -7 -146 -20 -202 -29 -69 -11 -169 -16 -305 -16
-196 0 -208 -1 -358 -35 -85 -20 -193 -38 -240 -40 -235 -11 -448 -39 -631
-83 -79 -19 -179 -34 -274 -41 -82 -7 -177 -16 -210 -21 -33 -5 -121 -14 -195
-20 -150 -12 -592 -73 -657 -91 -79 -21 -100 -50 -135 -179 -27 -102 -31 -135
-35 -298 -7 -240 0 -307 36 -343 36 -35 144 -69 246 -76 63 -4 97 -1 160 16
88 24 249 41 395 41 52 0 144 7 205 15 317 45 383 53 417 48 36 -5 220 24 468
73 195 39 242 50 293 70 42 16 49 17 57 4 24 -37 10 -97 -51 -226 -34 -71 -74
-165 -90 -209 -32 -86 -121 -247 -230 -416 -38 -58 -69 -113 -69 -122 0 -42
-58 -195 -120 -312 -86 -165 -125 -258 -150 -355 -20 -77 -205 -473 -305 -650
-108 -193 -176 -323 -195 -372 -11 -28 -44 -92 -74 -142 -55 -91 -184 -381
-256 -573 -48 -129 -169 -374 -259 -525 -49 -81 -83 -153 -111 -237 -22 -66
-67 -171 -99 -233 -31 -62 -70 -147 -86 -188 -15 -41 -56 -131 -90 -200 -34
-69 -75 -161 -90 -204 l-27 -79 22 -123 c18 -103 20 -143 15 -256 -5 -101 -3
-157 9 -233 25 -151 32 -169 82 -219 l46 -46 192 0 c180 0 197 2 267 25 51 18
113 29 199 35 126 11 276 33 495 75 137 27 340 57 535 80 74 9 182 23 240 30
58 8 154 19 215 25 60 6 130 15 155 20 45 9 215 24 390 35 99 6 304 34 450 61
47 9 132 22 190 28 l105 12 9 264 c7 225 5 286 -9 407 -26 219 -33 245 -75
265 -51 26 -109 22 -269 -17 -78 -19 -174 -40 -214 -46 -40 -5 -142 -23 -227
-39 -85 -16 -204 -32 -265 -35 -84 -5 -137 -15 -225 -42 -100 -30 -132 -35
-243 -39 -79 -2 -183 -14 -275 -30 -117 -22 -174 -27 -280 -26 -146 2 -179 11
-200 54 -11 24 -10 32 7 65 10 21 40 89 65 152 25 62 77 170 115 240 80 144
96 180 147 311 20 52 67 156 104 230 37 74 84 167 103 205 100 198 178 369
249 545 44 107 93 220 110 250 17 30 64 118 103 195 40 77 80 154 89 170 53
99 181 383 206 458 32 93 69 175 113 244 15 24 106 206 203 405 97 200 191
390 209 423 19 33 54 112 80 175 25 63 82 184 126 268 44 84 98 203 120 265
22 62 66 168 99 237 l59 125 -24 175 c-13 96 -28 191 -34 210 -14 45 -48 237
-57 320 -8 83 -16 97 -62 109 -70 18 -97 19 -197 6z m-592 -301 c-1 -5 -11
-10 -23 -12 -16 -3 -20 2 -20 24 0 25 1 26 23 12 12 -9 21 -19 20 -24z m185
-110 c31 -22 28 -31 -15 -37 -21 -4 -53 -9 -70 -13 -27 -5 -33 -3 -33 10 0 11
9 16 31 16 22 0 32 5 36 20 6 24 21 25 51 4z m-1795 -81 c7 -43 -2 -53 -53
-53 -28 0 -38 6 -52 30 l-17 30 47 14 c67 21 69 20 75 -21z m458 -116 c-23
-23 -35 -28 -55 -23 -19 5 -26 13 -26 31 0 21 5 25 30 25 24 0 30 4 30 22 l0
21 25 -23 26 -24 -30 -29z m-297 -49 c3 -17 5 -32 4 -33 -7 -6 -118 19 -118
26 0 7 74 37 96 38 6 1 14 -13 18 -31z m1616 -365 c0 -5 -4 -14 -9 -22 -8 -12
-12 -12 -25 -2 -23 19 -20 31 9 31 14 0 25 -3 25 -7z m89 -357 l34 -12 -28
-22 c-43 -34 -65 -29 -65 13 0 38 6 40 59 21z m-279 -278 c8 -13 5 -18 -19
-23 -22 -5 -31 -13 -33 -32 -2 -21 -11 -28 -45 -38 l-43 -13 0 43 c0 35 7 50
42 89 l41 48 24 -29 c13 -15 28 -36 33 -45z m146 -153 c-7 -28 -45 -67 -58
-59 -13 9 1 46 30 77 28 29 38 23 28 -18z m-394 -64 c14 -45 14 -50 -2 -71
l-18 -24 -44 23 c-35 19 -44 30 -46 52 -2 24 4 31 40 48 24 10 46 20 49 20 3
1 12 -21 21 -48z m148 -245 l0 -64 -47 -20 c-79 -32 -129 -26 -153 18 -8 15 0
21 49 39 46 16 61 28 71 51 8 19 21 30 38 33 15 2 30 5 35 6 4 0 7 -28 7 -63z
m-368 -2 c34 -6 39 -11 58 -61 11 -29 20 -62 20 -72 0 -10 -23 -40 -51 -66
-52 -49 -58 -50 -123 -26 -28 11 -31 16 -40 57 -6 29 -5 31 49 53 32 13 54 28
52 35 -3 6 -12 28 -21 49 -18 42 -17 43 56 31z m293 -244 c13 -5 25 -24 33
-55 7 -26 11 -49 10 -50 -2 -1 -21 -12 -43 -23 -39 -19 -41 -20 -63 -2 -20 16
-42 91 -42 143 0 9 70 0 105 -13z m-160 -51 c6 -42 4 -52 -11 -64 -16 -11 -19
-26 -18 -93 l1 -80 -30 -6 c-64 -13 -65 -12 -72 67 l-7 73 57 77 c32 42 61 77
65 77 5 0 11 -23 15 -51z m-366 -56 c-5 -21 -9 -57 -9 -80 0 -33 -5 -46 -27
-63 -26 -20 -28 -20 -40 -3 -8 10 -19 35 -25 57 l-12 39 49 43 c62 55 76 57
64 7z m142 -376 c-12 -12 -40 -27 -64 -33 l-42 -12 33 -12 c39 -15 40 -23 4
-49 -26 -18 -33 -19 -78 -7 -45 11 -50 15 -63 55 -7 23 -11 45 -8 48 4 3 32 8
63 12 l56 6 24 64 c22 58 23 66 9 81 -22 24 -20 31 28 106 l42 66 9 -152 c9
-148 8 -152 -13 -173z m-346 -156 l-7 -55 -29 34 c-16 19 -29 39 -29 45 0 5
15 24 33 43 31 32 32 33 35 11 2 -12 1 -47 -3 -78z m503 62 c-3 -37 -4 -38
-45 -41 -56 -4 -58 18 -5 52 50 33 54 32 50 -11z m-248 -162 c0 -43 -54 -104
-102 -116 -32 -8 -45 9 -49 65 l-4 45 45 6 c72 10 110 10 110 0z m-346 -230
c4 -5 24 -12 47 -16 28 -5 43 -13 48 -28 10 -26 -9 -34 -79 -36 -61 -1 -73 12
-52 55 16 34 26 41 36 25z m135 -303 c1 -22 -9 -23 -34 -4 -19 14 -19 14 0 36
18 20 20 20 26 3 4 -10 8 -26 8 -35z m-455 -254 c19 -7 22 -54 3 -54 -7 0 -21
14 -30 30 -19 32 -11 39 27 24z m6 -394 c7 -30 10 -65 9 -78 -4 -22 -5 -22
-56 14 -29 20 -53 41 -53 47 0 5 16 30 37 55 41 50 44 48 63 -38z m25 -210
c-16 -16 -30 -28 -33 -26 -7 8 33 55 47 56 10 0 4 -11 -14 -30z m-255 -463 c0
-24 -6 -51 -12 -60 -12 -14 -15 -14 -33 -1 -19 14 -19 15 4 59 13 25 28 45 32
45 5 0 9 -19 9 -43z m9 -218 c17 -6 31 -14 31 -19 0 -4 -20 -16 -45 -26 l-46
-19 -55 -167 c-41 -121 -61 -167 -74 -171 -11 -3 -25 -27 -39 -68 -26 -77 -26
-79 -1 -79 26 0 25 -4 -5 -57 l-26 -43 -36 15 c-63 26 -65 30 -42 88 13 33 18
63 15 83 l-6 31 -44 -10 c-39 -9 -47 -7 -80 15 l-37 25 26 17 c15 10 57 19
105 23 79 6 79 6 85 37 4 19 23 46 51 71 l45 41 -10 84 c-6 46 -8 86 -5 89 5
5 133 46 155 50 3 1 20 -4 38 -10z m-454 -645 c-10 -68 -13 -73 -53 -79 -21
-4 -47 -8 -59 -11 -20 -4 -23 0 -23 23 0 23 12 36 63 70 34 23 66 42 71 42 4
1 5 -20 1 -45z m2148 -86 c5 -36 -5 -48 -40 -48 -20 0 -23 5 -23 40 0 37 2 40
29 40 25 0 29 -4 34 -32z m287 -26 c0 -38 -1 -39 -65 -65 -67 -28 -105 -34
-105 -18 0 7 157 121 167 121 2 0 3 -17 3 -38z m-2344 -1 c24 -19 74 -111 74
-135 0 -10 -19 -16 -65 -21 -61 -6 -68 -5 -101 20 -20 16 -32 31 -27 38 18 30
86 117 92 117 3 -1 16 -9 27 -19z m-251 -177 c32 -21 32 -39 1 -60 -24 -15
-27 -14 -85 27 -34 24 -61 46 -61 50 0 4 17 11 38 17 38 9 41 8 107 -34z m736
-115 c52 -19 59 -25 59 -49 0 -27 -1 -27 -85 -33 -79 -6 -157 -2 -212 9 -17 3
-23 11 -23 29 0 23 4 25 48 26 26 0 70 9 97 19 28 10 52 19 54 19 2 1 30 -9
62 -20z m-451 -41 c55 -40 2 -61 -85 -34 l-40 13 45 21 c25 11 46 21 48 21 2
1 16 -9 32 -21z"/>
<path d="M8640 9943 c-41 -7 -109 -21 -150 -29 -125 -26 -169 -33 -315 -44
-173 -13 -208 -17 -315 -35 -136 -23 -264 -36 -430 -45 -120 -6 -168 -13 -211
-29 -90 -34 -91 -36 -88 -203 3 -126 0 -151 -20 -213 -19 -59 -23 -94 -24
-225 -2 -148 -1 -157 23 -205 l26 -50 114 3 c63 2 149 7 190 12 41 5 118 14
170 20 94 11 324 44 430 61 30 5 166 13 302 19 234 10 255 12 378 45 72 19
139 39 148 44 39 21 51 47 61 136 36 302 41 367 41 491 l0 136 -57 58 -58 58
-70 4 c-38 2 -104 -2 -145 -9z m-76 -249 c14 -5 13 -11 -4 -45 -22 -42 -46
-49 -95 -27 -37 17 -30 50 15 65 40 14 62 15 84 7z m144 -140 c-13 -38 -23
-70 -23 -71 0 -1 -12 -4 -27 -8 -30 -8 -39 5 -51 75 -5 29 -4 32 6 18 10 -15
13 -15 29 10 15 22 76 56 86 47 2 -2 -7 -34 -20 -71z m-1278 -426 c22 -13 40
-26 40 -29 0 -6 -112 1 -119 7 -4 4 29 44 36 44 2 0 22 -10 43 -22z"/>
</g>
</svg>
